<svg width="40" height="40" viewBox="0 0 40 40" fill="none" xmlns="http://www.w3.org/2000/svg">
<rect width="40" height="40" rx="6" fill="url(#paint0_radial_2278_1195)" fill-opacity="0.24"/>
<g filter="url(#filter0_d_2278_1195)">
<path d="M27.9335 28.1666C29.2403 28.1666 29.8937 28.1666 30.3928 27.9123C30.8319 27.6886 31.1888 27.3316 31.4125 26.8926C31.6668 26.3934 31.6668 25.74 31.6668 24.4333V15.5666C31.6668 14.2598 31.6668 13.6064 31.4125 13.1073C31.1888 12.6682 30.8319 12.3113 30.3928 12.0876C29.8937 11.8333 29.2403 11.8333 27.9335 11.8333L12.0668 11.8333C10.76 11.8333 10.1066 11.8333 9.60752 12.0876C9.16847 12.3113 8.81152 12.6682 8.58781 13.1073C8.3335 13.6064 8.3335 14.2598 8.3335 15.5666L8.3335 24.4333C8.3335 25.74 8.3335 26.3934 8.58781 26.8926C8.81152 27.3316 9.16847 27.6886 9.60752 27.9123C10.1066 28.1666 10.76 28.1666 12.0668 28.1666L27.9335 28.1666Z" fill="url(#paint1_linear_2278_1195)"/>
<path d="M27.5835 19.9999C27.5835 20.3221 27.3223 20.5833 27.0002 20.5833C26.678 20.5833 26.4168 20.3221 26.4168 19.9999C26.4168 19.6778 26.678 19.4166 27.0002 19.4166C27.3223 19.4166 27.5835 19.6778 27.5835 19.9999Z" fill="url(#paint2_linear_2278_1195)"/>
<path d="M13.5835 19.9999C13.5835 20.3221 13.3223 20.5833 13.0002 20.5833C12.678 20.5833 12.4168 20.3221 12.4168 19.9999C12.4168 19.6778 12.678 19.4166 13.0002 19.4166C13.3223 19.4166 13.5835 19.6778 13.5835 19.9999Z" fill="url(#paint3_linear_2278_1195)"/>
<path d="M22.3335 16.4999H19.4168C18.4503 16.4999 17.6668 17.2834 17.6668 18.2499C17.6668 19.2164 18.4503 19.9999 19.4168 19.9999H20.5835C21.55 19.9999 22.3335 20.7834 22.3335 21.7499C22.3335 22.7164 21.55 23.4999 20.5835 23.4999H17.6668M20.0002 15.3333V16.4999M20.0002 23.4999V24.6666M27.0002 19.9999H27.0118M13.0002 19.9999H13.0118M8.3335 15.5666L8.3335 24.4333C8.3335 25.74 8.3335 26.3934 8.58781 26.8926C8.81152 27.3316 9.16847 27.6886 9.60752 27.9123C10.1066 28.1666 10.76 28.1666 12.0668 28.1666L27.9335 28.1666C29.2403 28.1666 29.8937 28.1666 30.3928 27.9123C30.8319 27.6886 31.1888 27.3316 31.4125 26.8926C31.6668 26.3934 31.6668 25.74 31.6668 24.4333V15.5666C31.6668 14.2598 31.6668 13.6064 31.4125 13.1073C31.1888 12.6682 30.8319 12.3113 30.3928 12.0876C29.8937 11.8333 29.2403 11.8333 27.9335 11.8333L12.0668 11.8333C10.76 11.8333 10.1066 11.8333 9.60752 12.0876C9.16847 12.3113 8.81152 12.6682 8.58781 13.1073C8.3335 13.6064 8.3335 14.2598 8.3335 15.5666ZM27.5835 19.9999C27.5835 20.3221 27.3223 20.5833 27.0002 20.5833C26.678 20.5833 26.4168 20.3221 26.4168 19.9999C26.4168 19.6778 26.678 19.4166 27.0002 19.4166C27.3223 19.4166 27.5835 19.6778 27.5835 19.9999ZM13.5835 19.9999C13.5835 20.3221 13.3223 20.5833 13.0002 20.5833C12.678 20.5833 12.4168 20.3221 12.4168 19.9999C12.4168 19.6778 12.678 19.4166 13.0002 19.4166C13.3223 19.4166 13.5835 19.6778 13.5835 19.9999Z" stroke="white" stroke-opacity="0.4" stroke-linecap="round" stroke-linejoin="round"/>
</g>
<defs>
<filter id="filter0_d_2278_1195" x="2" y="6" width="36" height="36" filterUnits="userSpaceOnUse" color-interpolation-filters="sRGB">
<feFlood flood-opacity="0" result="BackgroundImageFix"/>
<feColorMatrix in="SourceAlpha" type="matrix" values="0 0 0 0 0 0 0 0 0 0 0 0 0 0 0 0 0 0 127 0" result="hardAlpha"/>
<feOffset dy="4"/>
<feGaussianBlur stdDeviation="2"/>
<feComposite in2="hardAlpha" operator="out"/>
<feColorMatrix type="matrix" values="0 0 0 0 0.0507042 0 0 0 0 0.129296 0 0 0 0 0.101408 0 0 0 1 0"/>
<feBlend mode="normal" in2="BackgroundImageFix" result="effect1_dropShadow_2278_1195"/>
<feBlend mode="normal" in="SourceGraphic" in2="effect1_dropShadow_2278_1195" result="shape"/>
</filter>
<radialGradient id="paint0_radial_2278_1195" cx="0" cy="0" r="1" gradientUnits="userSpaceOnUse" gradientTransform="translate(20 55.5) rotate(90) scale(60 33.9691)">
<stop stop-color="#106038"/>
<stop offset="1" stop-color="#57E39C"/>
</radialGradient>
<linearGradient id="paint1_linear_2278_1195" x1="20.0002" y1="11.8333" x2="20.0002" y2="31.7598" gradientUnits="userSpaceOnUse">
<stop stop-color="white"/>
<stop offset="1" stop-color="white" stop-opacity="0"/>
</linearGradient>
<linearGradient id="paint2_linear_2278_1195" x1="20.0002" y1="11.8333" x2="20.0002" y2="31.7598" gradientUnits="userSpaceOnUse">
<stop stop-color="white"/>
<stop offset="1" stop-color="white" stop-opacity="0"/>
</linearGradient>
<linearGradient id="paint3_linear_2278_1195" x1="20.0002" y1="11.8333" x2="20.0002" y2="31.7598" gradientUnits="userSpaceOnUse">
<stop stop-color="white"/>
<stop offset="1" stop-color="white" stop-opacity="0"/>
</linearGradient>
</defs>
</svg>
