<svg width="111" height="20" viewBox="0 0 111 20" fill="none" xmlns="http://www.w3.org/2000/svg">
<path d="M9.61787 2.8778C9.80994 2.48869 9.90597 2.29413 10.0363 2.23197C10.1498 2.17789 10.2816 2.17789 10.395 2.23197C10.5254 2.29413 10.6214 2.48869 10.8135 2.8778L12.6357 6.56944C12.6924 6.68432 12.7208 6.74176 12.7622 6.78635C12.7989 6.82584 12.8429 6.85783 12.8918 6.88056C12.947 6.90623 13.0103 6.91549 13.1371 6.93402L17.2132 7.5298C17.6424 7.59253 17.857 7.6239 17.9563 7.72874C18.0427 7.81995 18.0834 7.94529 18.0669 8.06985C18.048 8.21302 17.8926 8.36436 17.5819 8.66703L14.6335 11.5387C14.5416 11.6282 14.4957 11.673 14.466 11.7263C14.4398 11.7734 14.4229 11.8252 14.4164 11.8788C14.4091 11.9393 14.4199 12.0025 14.4416 12.129L15.1373 16.1851C15.2107 16.6129 15.2474 16.8269 15.1784 16.9538C15.1184 17.0642 15.0118 17.1417 14.8882 17.1646C14.7462 17.1909 14.5541 17.0899 14.1699 16.8879L10.526 14.9716C10.4124 14.9119 10.3557 14.882 10.2959 14.8703C10.2429 14.8599 10.1884 14.8599 10.1355 14.8703C10.0757 14.882 10.0189 14.9119 9.90537 14.9716L6.26143 16.8879C5.87725 17.0899 5.68517 17.1909 5.54313 17.1646C5.41956 17.1417 5.31293 17.0642 5.25294 16.9538C5.18399 16.8269 5.22068 16.6129 5.29405 16.1851L5.98973 12.129C6.01142 12.0025 6.02226 11.9393 6.01492 11.8788C6.00843 11.8252 5.99158 11.7734 5.96533 11.7263C5.93568 11.673 5.88972 11.6282 5.79781 11.5387L2.84946 8.66702C2.53871 8.36436 2.38334 8.21302 2.36443 8.06985C2.34798 7.94529 2.38862 7.81995 2.47503 7.72874C2.57435 7.6239 2.78897 7.59253 3.21819 7.5298L7.29425 6.93402C7.42101 6.91549 7.48439 6.90623 7.53959 6.88056C7.58846 6.85783 7.63246 6.82584 7.66915 6.78635C7.71058 6.74176 7.73893 6.68432 7.79564 6.56944L9.61787 2.8778Z" fill="white"/>
<path d="M32.1893 2.8778C32.3813 2.48869 32.4774 2.29413 32.6078 2.23197C32.7212 2.17789 32.853 2.17789 32.9664 2.23197C33.0968 2.29413 33.1928 2.48869 33.3849 2.8778L35.2071 6.56944C35.2638 6.68432 35.2922 6.74176 35.3336 6.78635C35.3703 6.82584 35.4143 6.85783 35.4632 6.88056C35.5184 6.90623 35.5817 6.91549 35.7085 6.93402L39.7846 7.5298C40.2138 7.59253 40.4284 7.6239 40.5277 7.72874C40.6141 7.81995 40.6548 7.94529 40.6383 8.06985C40.6194 8.21302 40.464 8.36436 40.1533 8.66703L37.2049 11.5387C37.113 11.6282 37.0671 11.673 37.0374 11.7263C37.0112 11.7734 36.9943 11.8252 36.9878 11.8788C36.9805 11.9393 36.9913 12.0025 37.013 12.129L37.7087 16.1851C37.7821 16.6129 37.8188 16.8269 37.7498 16.9538C37.6898 17.0642 37.5832 17.1417 37.4596 17.1646C37.3176 17.1909 37.1255 17.0899 36.7413 16.8879L33.0974 14.9716C32.9838 14.9119 32.9271 14.882 32.8673 14.8703C32.8143 14.8599 32.7598 14.8599 32.7069 14.8703C32.6471 14.882 32.5903 14.9119 32.4768 14.9716L28.8328 16.8879C28.4487 17.0899 28.2566 17.1909 28.1145 17.1646C27.991 17.1417 27.8843 17.0642 27.8243 16.9538C27.7554 16.8269 27.7921 16.6129 27.8655 16.1851L28.5611 12.129C28.5828 12.0025 28.5937 11.9393 28.5863 11.8788C28.5798 11.8252 28.563 11.7734 28.5367 11.7263C28.5071 11.673 28.4611 11.6282 28.3692 11.5387L25.4209 8.66702C25.1101 8.36436 24.9547 8.21302 24.9358 8.06985C24.9194 7.94529 24.96 7.81995 25.0464 7.72874C25.1458 7.6239 25.3604 7.59253 25.7896 7.5298L29.8657 6.93402C29.9924 6.91549 30.0558 6.90623 30.111 6.88056C30.1599 6.85783 30.2039 6.82584 30.2406 6.78635C30.282 6.74176 30.3103 6.68432 30.367 6.56944L32.1893 2.8778Z" fill="white"/>
<path d="M54.7607 2.8778C54.9528 2.48869 55.0488 2.29413 55.1792 2.23197C55.2926 2.17789 55.4244 2.17789 55.5378 2.23197C55.6682 2.29413 55.7642 2.48869 55.9563 2.8778L57.7785 6.56944C57.8352 6.68432 57.8636 6.74176 57.905 6.78635C57.9417 6.82584 57.9857 6.85783 58.0346 6.88056C58.0898 6.90623 58.1532 6.91549 58.2799 6.93402L62.356 7.5298C62.7852 7.59253 62.9998 7.6239 63.0991 7.72874C63.1855 7.81995 63.2262 7.94529 63.2097 8.06985C63.1908 8.21302 63.0355 8.36436 62.7247 8.66703L59.7764 11.5387C59.6844 11.6282 59.6385 11.673 59.6088 11.7263C59.5826 11.7734 59.5657 11.8252 59.5592 11.8788C59.5519 11.9393 59.5627 12.0025 59.5844 12.129L60.2801 16.1851C60.3535 16.6129 60.3902 16.8269 60.3212 16.9538C60.2612 17.0642 60.1546 17.1417 60.031 17.1646C59.889 17.1909 59.6969 17.0899 59.3127 16.8879L55.6688 14.9716C55.5553 14.9119 55.4985 14.882 55.4387 14.8703C55.3857 14.8599 55.3313 14.8599 55.2783 14.8703C55.2185 14.882 55.1617 14.9119 55.0482 14.9716L51.4042 16.8879C51.0201 17.0899 50.828 17.1909 50.686 17.1646C50.5624 17.1417 50.4557 17.0642 50.3958 16.9538C50.3268 16.8269 50.3635 16.6129 50.4369 16.1851L51.1326 12.129C51.1542 12.0025 51.1651 11.9393 51.1577 11.8788C51.1512 11.8252 51.1344 11.7734 51.1082 11.7263C51.0785 11.673 51.0325 11.6282 50.9406 11.5387L47.9923 8.66702C47.6815 8.36436 47.5262 8.21302 47.5073 8.06985C47.4908 7.94529 47.5314 7.81995 47.6179 7.72874C47.7172 7.6239 47.9318 7.59253 48.361 7.5298L52.4371 6.93402C52.5638 6.91549 52.6272 6.90623 52.6824 6.88056C52.7313 6.85783 52.7753 6.82584 52.812 6.78635C52.8534 6.74176 52.8818 6.68432 52.9385 6.56944L54.7607 2.8778Z" fill="white"/>
<path d="M77.3321 2.8778C77.5242 2.48869 77.6202 2.29413 77.7506 2.23197C77.864 2.17789 77.9958 2.17789 78.1092 2.23197C78.2396 2.29413 78.3356 2.48869 78.5277 2.8778L80.3499 6.56944C80.4066 6.68432 80.435 6.74176 80.4764 6.78635C80.5131 6.82584 80.5571 6.85783 80.606 6.88056C80.6612 6.90623 80.7246 6.91549 80.8513 6.93402L84.9274 7.5298C85.3566 7.59253 85.5712 7.6239 85.6705 7.72874C85.757 7.81995 85.7976 7.94529 85.7811 8.06985C85.7622 8.21302 85.6069 8.36436 85.2961 8.66703L82.3478 11.5387C82.2559 11.6282 82.2099 11.673 82.1802 11.7263C82.154 11.7734 82.1371 11.8252 82.1307 11.8788C82.1233 11.9393 82.1342 12.0025 82.1558 12.129L82.8515 16.1851C82.9249 16.6129 82.9616 16.8269 82.8926 16.9538C82.8327 17.0642 82.726 17.1417 82.6024 17.1646C82.4604 17.1909 82.2683 17.0899 81.8842 16.8879L78.2402 14.9716C78.1267 14.9119 78.0699 14.882 78.0101 14.8703C77.9571 14.8599 77.9027 14.8599 77.8497 14.8703C77.7899 14.882 77.7331 14.9119 77.6196 14.9716L73.9757 16.8879C73.5915 17.0899 73.3994 17.1909 73.2574 17.1646C73.1338 17.1417 73.0272 17.0642 72.9672 16.9538C72.8982 16.8269 72.9349 16.6129 73.0083 16.1851L73.704 12.129C73.7257 12.0025 73.7365 11.9393 73.7292 11.8788C73.7227 11.8252 73.7058 11.7734 73.6796 11.7263C73.6499 11.673 73.604 11.6282 73.512 11.5387L70.5637 8.66702C70.2529 8.36436 70.0976 8.21302 70.0787 8.06985C70.0622 7.94529 70.1029 7.81995 70.1893 7.72874C70.2886 7.6239 70.5032 7.59253 70.9324 7.5298L75.0085 6.93402C75.1352 6.91549 75.1986 6.90623 75.2538 6.88056C75.3027 6.85783 75.3467 6.82584 75.3834 6.78635C75.4248 6.74176 75.4532 6.68432 75.5099 6.56944L77.3321 2.8778Z" fill="white"/>
<path d="M99.9036 2.8778C100.096 2.48869 100.192 2.29413 100.322 2.23197C100.436 2.17789 100.567 2.17789 100.681 2.23197C100.811 2.29413 100.907 2.48869 101.099 2.8778L102.921 6.56944C102.978 6.68432 103.007 6.74176 103.048 6.78635C103.085 6.82584 103.129 6.85783 103.178 6.88056C103.233 6.90623 103.296 6.91549 103.423 6.93402L107.499 7.5298C107.928 7.59253 108.143 7.6239 108.242 7.72874C108.328 7.81995 108.369 7.94529 108.353 8.06985C108.334 8.21302 108.178 8.36436 107.868 8.66703L104.919 11.5387C104.827 11.6282 104.781 11.673 104.752 11.7263C104.726 11.7734 104.709 11.8252 104.702 11.8788C104.695 11.9393 104.706 12.0025 104.727 12.129L105.423 16.1851C105.496 16.6129 105.533 16.8269 105.464 16.9538C105.404 17.0642 105.298 17.1417 105.174 17.1646C105.032 17.1909 104.84 17.0899 104.456 16.8879L100.812 14.9716C100.698 14.9119 100.641 14.882 100.582 14.8703C100.529 14.8599 100.474 14.8599 100.421 14.8703C100.361 14.882 100.305 14.9119 100.191 14.9716L96.5472 16.8879C96.163 17.0899 95.9709 17.1909 95.8289 17.1646C95.7053 17.1417 95.5987 17.0642 95.5387 16.9538C95.4698 16.8269 95.5064 16.6129 95.5798 16.1851L96.2755 12.129C96.2972 12.0025 96.308 11.9393 96.3007 11.8788C96.2942 11.8252 96.2774 11.7734 96.2511 11.7263C96.2214 11.673 96.1755 11.6282 96.0836 11.5387L93.1352 8.66702C92.8245 8.36436 92.6691 8.21302 92.6502 8.06985C92.6337 7.94529 92.6744 7.81995 92.7608 7.72874C92.8601 7.6239 93.0747 7.59253 93.504 7.5298L97.58 6.93402C97.7068 6.91549 97.7702 6.90623 97.8254 6.88056C97.8742 6.85783 97.9182 6.82584 97.9549 6.78635C97.9963 6.74176 98.0247 6.68432 98.0814 6.56944L99.9036 2.8778Z" fill="white"/>
</svg>
