<svg width="40" height="40" viewBox="0 0 40 40" fill="none" xmlns="http://www.w3.org/2000/svg">
<g clip-path="url(#clip0_2278_1186)">
<rect width="40" height="40" rx="6" fill="url(#paint0_radial_2278_1186)" fill-opacity="0.24"/>
<g filter="url(#filter0_d_2278_1186)">
<path d="M26.2439 25.2499H16.2597C15.1045 25.2499 14.5269 25.2499 14.0632 25.0369C13.6545 24.8491 13.3088 24.5473 13.0677 24.1677C12.7941 23.7369 12.7162 23.1645 12.5605 22.0199L11.3333 12.9999H30.5387C30.9257 12.9999 31.1192 12.9999 31.2554 13.0793C31.3748 13.1489 31.4657 13.2586 31.5117 13.389C31.5642 13.5376 31.528 13.7277 31.4555 14.1079L29.9113 22.2151C29.7055 23.2954 29.6027 23.8355 29.3242 24.2398C29.0787 24.5964 28.7389 24.8776 28.3427 25.0521C27.8934 25.2499 27.3435 25.2499 26.2439 25.2499Z" fill="url(#paint1_linear_2278_1186)"/>
<path d="M16.4999 31.6666C17.1443 31.6666 17.6666 31.1443 17.6666 30.4999C17.6666 29.8556 17.1443 29.3333 16.4999 29.3333C15.8556 29.3333 15.3333 29.8556 15.3333 30.4999C15.3333 31.1443 15.8556 31.6666 16.4999 31.6666Z" fill="url(#paint2_linear_2278_1186)"/>
<path d="M25.8333 31.6666C26.4776 31.6666 26.9999 31.1443 26.9999 30.4999C26.9999 29.8556 26.4776 29.3333 25.8333 29.3333C25.1889 29.3333 24.6666 29.8556 24.6666 30.4999C24.6666 31.1443 25.1889 31.6666 25.8333 31.6666Z" fill="url(#paint3_linear_2278_1186)"/>
<path d="M8.33325 8.33325H9.85711C10.1441 8.33325 10.2876 8.33325 10.4031 8.38603C10.5049 8.43254 10.5912 8.50735 10.6516 8.60152C10.7202 8.70839 10.7405 8.85046 10.7811 9.13459L11.3333 12.9999M11.3333 12.9999L12.5605 22.0199C12.7162 23.1645 12.7941 23.7369 13.0677 24.1677C13.3088 24.5473 13.6545 24.8491 14.0632 25.0369C14.5269 25.2499 15.1045 25.2499 16.2597 25.2499H26.2439C27.3436 25.2499 27.8934 25.2499 28.3427 25.0521C28.7389 24.8776 29.0787 24.5964 29.3242 24.2398C29.6027 23.8355 29.7055 23.2954 29.9113 22.2151L31.4555 14.1079C31.528 13.7277 31.5642 13.5376 31.5117 13.389C31.4657 13.2586 31.3748 13.1489 31.2554 13.0793C31.1192 12.9999 30.9257 12.9999 30.5387 12.9999H11.3333ZM17.6666 30.4999C17.6666 31.1443 17.1443 31.6666 16.4999 31.6666C15.8556 31.6666 15.3333 31.1443 15.3333 30.4999C15.3333 29.8556 15.8556 29.3333 16.4999 29.3333C17.1443 29.3333 17.6666 29.8556 17.6666 30.4999ZM26.9999 30.4999C26.9999 31.1443 26.4776 31.6666 25.8333 31.6666C25.1889 31.6666 24.6666 31.1443 24.6666 30.4999C24.6666 29.8556 25.1889 29.3333 25.8333 29.3333C26.4776 29.3333 26.9999 29.8556 26.9999 30.4999Z" stroke="url(#paint4_linear_2278_1186)" stroke-opacity="0.4" stroke-linecap="round" stroke-linejoin="round"/>
</g>
</g>
<defs>
<filter id="filter0_d_2278_1186" x="2" y="6" width="36" height="36" filterUnits="userSpaceOnUse" color-interpolation-filters="sRGB">
<feFlood flood-opacity="0" result="BackgroundImageFix"/>
<feColorMatrix in="SourceAlpha" type="matrix" values="0 0 0 0 0 0 0 0 0 0 0 0 0 0 0 0 0 0 127 0" result="hardAlpha"/>
<feOffset dy="4"/>
<feGaussianBlur stdDeviation="2"/>
<feComposite in2="hardAlpha" operator="out"/>
<feColorMatrix type="matrix" values="0 0 0 0 0.0507042 0 0 0 0 0.129296 0 0 0 0 0.101408 0 0 0 1 0"/>
<feBlend mode="normal" in2="BackgroundImageFix" result="effect1_dropShadow_2278_1186"/>
<feBlend mode="normal" in="SourceGraphic" in2="effect1_dropShadow_2278_1186" result="shape"/>
</filter>
<radialGradient id="paint0_radial_2278_1186" cx="0" cy="0" r="1" gradientUnits="userSpaceOnUse" gradientTransform="translate(20 55.5) rotate(90) scale(60 33.9691)">
<stop stop-color="#106038"/>
<stop offset="1" stop-color="#57E39C"/>
</radialGradient>
<linearGradient id="paint1_linear_2278_1186" x1="19.9349" y1="8.33325" x2="19.9349" y2="36.7998" gradientUnits="userSpaceOnUse">
<stop stop-color="white"/>
<stop offset="1" stop-color="white" stop-opacity="0"/>
</linearGradient>
<linearGradient id="paint2_linear_2278_1186" x1="19.9349" y1="8.33325" x2="19.9349" y2="36.7998" gradientUnits="userSpaceOnUse">
<stop stop-color="white"/>
<stop offset="1" stop-color="white" stop-opacity="0"/>
</linearGradient>
<linearGradient id="paint3_linear_2278_1186" x1="19.9349" y1="8.33325" x2="19.9349" y2="36.7998" gradientUnits="userSpaceOnUse">
<stop stop-color="white"/>
<stop offset="1" stop-color="white" stop-opacity="0"/>
</linearGradient>
<linearGradient id="paint4_linear_2278_1186" x1="19.9349" y1="8.33325" x2="19.9349" y2="36.7998" gradientUnits="userSpaceOnUse">
<stop stop-color="white"/>
<stop offset="1" stop-color="white" stop-opacity="0"/>
</linearGradient>
<clipPath id="clip0_2278_1186">
<rect width="40" height="40" rx="6" fill="white"/>
</clipPath>
</defs>
</svg>
