<svg width="40" height="40" viewBox="0 0 40 40" fill="none" xmlns="http://www.w3.org/2000/svg">
<g clip-path="url(#clip0_2278_1167)">
<rect width="40" height="40" rx="6" fill="url(#paint0_radial_2278_1167)" fill-opacity="0.24"/>
<g filter="url(#filter0_d_2278_1167)">
<path d="M29.7898 28.6988C29.5272 30.4062 28.058 31.6666 26.3305 31.6666H10.6666C9.37792 31.6666 8.33325 30.6219 8.33325 29.3333V21.1666C8.33325 19.8779 9.37792 18.8333 10.6666 18.8333H13.4084C13.8695 18.8333 14.2873 18.5617 14.4745 18.1404L18.5802 8.90273C18.7341 8.55643 19.0775 8.33325 19.4564 8.33325C21.0453 8.33325 22.3333 9.62124 22.3333 11.2101V15.3333C22.3333 15.9776 22.8556 16.4999 23.4999 16.4999H27.5869C29.732 16.4999 31.3724 18.412 31.0462 20.5321L29.7898 28.6988Z" fill="url(#paint1_linear_2278_1167)"/>
<path d="M14.1666 31.6666V18.8333M8.33325 21.1666V29.3333C8.33325 30.6219 9.37792 31.6666 10.6666 31.6666H26.3305C28.058 31.6666 29.5272 30.4062 29.7898 28.6988L31.0462 20.5321C31.3724 18.412 29.732 16.4999 27.5869 16.4999H23.4999C22.8556 16.4999 22.3333 15.9776 22.3333 15.3333V11.2101C22.3333 9.62124 21.0453 8.33325 19.4564 8.33325C19.0775 8.33325 18.7341 8.55643 18.5802 8.90273L14.4745 18.1404C14.2873 18.5617 13.8695 18.8333 13.4084 18.8333H10.6666C9.37792 18.8333 8.33325 19.8779 8.33325 21.1666Z" stroke="white" stroke-opacity="0.4" stroke-linecap="round" stroke-linejoin="round"/>
</g>
</g>
<defs>
<filter id="filter0_d_2278_1167" x="2" y="6" width="36" height="36" filterUnits="userSpaceOnUse" color-interpolation-filters="sRGB">
<feFlood flood-opacity="0" result="BackgroundImageFix"/>
<feColorMatrix in="SourceAlpha" type="matrix" values="0 0 0 0 0 0 0 0 0 0 0 0 0 0 0 0 0 0 127 0" result="hardAlpha"/>
<feOffset dy="4"/>
<feGaussianBlur stdDeviation="2"/>
<feComposite in2="hardAlpha" operator="out"/>
<feColorMatrix type="matrix" values="0 0 0 0 0.0507042 0 0 0 0 0.129296 0 0 0 0 0.101408 0 0 0 1 0"/>
<feBlend mode="normal" in2="BackgroundImageFix" result="effect1_dropShadow_2278_1167"/>
<feBlend mode="normal" in="SourceGraphic" in2="effect1_dropShadow_2278_1167" result="shape"/>
</filter>
<radialGradient id="paint0_radial_2278_1167" cx="0" cy="0" r="1" gradientUnits="userSpaceOnUse" gradientTransform="translate(20 55.5) rotate(90) scale(60 33.9691)">
<stop stop-color="#106038"/>
<stop offset="1" stop-color="#57E39C"/>
</radialGradient>
<linearGradient id="paint1_linear_2278_1167" x1="19.7105" y1="8.33325" x2="19.7105" y2="36.7998" gradientUnits="userSpaceOnUse">
<stop stop-color="white"/>
<stop offset="1" stop-color="white" stop-opacity="0"/>
</linearGradient>
<clipPath id="clip0_2278_1167">
<rect width="40" height="40" rx="6" fill="white"/>
</clipPath>
</defs>
</svg>
